<?xml version="1.0" standalone="no"?>
<!DOCTYPE svg PUBLIC "-//W3C//DTD SVG 20010904//EN"
 "http://www.w3.org/TR/2001/REC-SVG-20010904/DTD/svg10.dtd">
<svg version="1.0" xmlns="http://www.w3.org/2000/svg"
 width="544.000000pt" height="543.000000pt" viewBox="0 0 544.000000 543.000000"
 preserveAspectRatio="xMidYMid meet">

<g transform="translate(0.000000,543.000000) scale(0.100000,-0.100000)"
fill="#000000" stroke="none">
<path d="M0 2715 l0 -2715 2720 0 2720 0 0 2715 0 2715 -2720 0 -2720 0 0
-2715z m2736 2004 c507 -49 915 -354 1108 -829 47 -115 104 -382 78 -366 -5 3
-12 34 -16 68 -9 89 -40 206 -81 307 -260 637 -962 960 -1615 742 -446 -149
-769 -519 -865 -990 -26 -129 -24 -347 4 -486 91 -446 395 -807 812 -964 106
-40 282 -81 347 -81 26 0 33 -3 25 -11 -22 -22 -272 33 -411 89 -286 118 -536
351 -680 638 -46 91 -98 256 -117 374 -23 137 -17 342 15 485 65 292 227 551
468 745 221 178 467 267 798 289 11 0 70 -4 130 -10z m-625 -653 c8 -16 23
-26 45 -30 44 -9 51 -23 24 -51 -15 -16 -23 -38 -24 -62 -1 -34 -3 -38 -26
-35 -14 2 -36 3 -50 3 -14 0 -36 -1 -50 -3 -22 -3 -25 1 -28 32 -2 19 -13 45
-24 57 -26 28 -17 52 22 60 17 3 38 16 47 29 20 31 50 31 64 0z m262 0 c9 -13
30 -26 47 -29 39 -8 48 -32 22 -60 -11 -12 -22 -38 -24 -57 -3 -31 -6 -35 -28
-32 -14 2 -36 3 -50 3 -14 0 -36 -1 -50 -3 -23 -3 -25 1 -28 37 -2 23 -12 47
-23 58 -10 10 -19 22 -19 27 0 12 34 30 58 30 10 0 24 11 30 25 15 32 45 32
65 1z m263 0 c8 -14 27 -26 41 -28 41 -5 52 -32 24 -62 -16 -17 -22 -32 -18
-48 4 -13 2 -30 -3 -38 -7 -12 -14 -12 -43 -2 -27 10 -41 10 -60 1 -39 -18
-59 -5 -56 35 3 25 -3 42 -18 58 -26 29 -20 46 22 54 20 3 37 15 45 30 17 31
45 31 66 0z m262 0 c7 -16 22 -26 45 -30 44 -8 52 -28 22 -56 -19 -17 -22 -29
-18 -56 7 -40 -14 -53 -54 -35 -19 9 -33 9 -60 -1 -40 -15 -55 -1 -47 42 4 18
-1 31 -15 44 -32 29 -27 54 14 62 20 3 40 16 50 30 20 31 49 31 63 0z m262 -1
c8 -16 25 -27 47 -31 26 -5 33 -11 33 -29 0 -13 -7 -25 -15 -29 -10 -3 -15
-19 -15 -45 0 -48 -10 -56 -54 -41 -25 8 -40 8 -59 -1 -34 -16 -56 1 -49 37 3
17 -3 33 -18 49 -28 30 -20 53 19 61 17 4 37 17 46 30 20 31 48 31 65 -1z
m-326 -241 c10 -4 16 -18 16 -40 l0 -33 118 -3 117 -3 3 -372 2 -373 74 0 c83
0 86 -3 86 -75 0 -82 64 -75 -652 -75 l-639 0 3 73 3 72 77 3 78 3 2 372 3
372 113 3 112 3 0 29 c0 17 7 33 18 39 18 11 439 15 466 5z m1103 -589 c-5
-107 -18 -147 -105 -325 -36 -74 -68 -139 -70 -145 -4 -13 63 61 175 192 49
55 93 104 100 107 13 5 -19 -68 -56 -129 -66 -108 -142 -186 -217 -221 -47
-23 -108 -84 -84 -84 17 0 215 101 302 153 42 26 80 47 85 47 14 0 -96 -98
-161 -144 -85 -59 -159 -89 -210 -84 -37 4 -45 1 -74 -31 -26 -28 -23 -22 11
24 70 96 68 86 62 287 -3 101 -1 189 3 196 6 9 15 -5 28 -45 26 -79 24 -197
-5 -278 -25 -71 -16 -64 34 25 29 51 45 102 75 235 51 225 80 347 87 365 12
32 25 -57 20 -145z m-284 -353 c-1 -53 -12 -117 -36 -205 -20 -71 -33 -136
-30 -144 5 -12 17 -14 63 -9 63 7 162 34 224 60 53 22 34 -1 -45 -53 -86 -58
-169 -70 -249 -37 -9 4 -30 -7 -53 -29 -52 -48 -60 -44 -12 5 24 24 39 51 42
70 3 30 38 237 64 373 17 90 34 73 32 -31z m-115 -149 c-6 -75 -39 -210 -68
-280 -8 -19 -6 -24 15 -29 14 -3 61 -1 106 5 60 9 103 9 174 1 52 -6 105 -8
116 -5 14 5 19 3 15 -3 -14 -23 -121 -34 -285 -31 l-166 4 -52 -39 c-29 -22
-51 -41 -49 -43 1 -2 18 2 36 8 37 13 294 6 345 -9 29 -9 28 -10 -39 -31 -86
-27 -154 -27 -268 1 l-90 21 -107 -54 -106 -53 60 -10 c43 -6 76 -5 120 4 36
8 132 14 240 15 99 1 191 5 205 9 60 18 -9 -15 -80 -38 -181 -60 -374 -63
-542 -9 -44 13 -53 13 -99 -2 l-51 -17 80 -44 c51 -27 119 -53 184 -70 225
-57 220 -53 68 -51 -125 2 -139 4 -190 29 -30 15 -79 50 -108 79 l-53 51 -87
-15 c-115 -20 -232 -30 -232 -20 0 5 30 10 68 11 37 1 98 8 136 14 62 10 70
15 92 47 13 20 48 101 79 181 51 133 103 229 142 262 28 23 10 -83 -24 -149
-71 -138 -126 -230 -164 -275 -22 -26 -37 -48 -32 -48 4 0 37 9 73 21 l66 21
67 131 c36 73 87 190 112 262 25 71 49 132 52 135 7 7 -5 -101 -18 -165 -15
-69 -91 -228 -140 -292 -22 -29 -34 -53 -27 -53 7 0 44 17 82 38 l70 37 36 92
c20 51 59 165 86 254 l49 161 9 -50 c16 -94 -30 -235 -134 -406 -21 -35 -22
-38 -4 -28 11 6 47 30 80 55 57 42 61 48 67 93 3 27 22 116 42 199 49 199 55
210 43 78z m-1291 -1039 c-3 -3 -12 -4 -19 -1 -8 3 -5 6 6 6 11 1 17 -2 13 -5z
m125 -10 c4 -3 8 -17 8 -31 l0 -26 -21 27 c-11 14 -35 30 -52 36 -30 9 -29 9
12 5 24 -3 48 -8 53 -11z m1410 -384 c18 -20 17 -20 -40 -19 -31 1 -49 3 -39
6 30 8 19 70 -32 188 -5 11 -19 49 -32 85 -12 36 -26 70 -31 76 -5 7 -4 23 3
38 12 25 17 15 83 -163 39 -105 79 -200 88 -211z m650 384 c4 -3 8 -15 8 -26
l0 -21 -24 22 c-13 12 -36 26 -52 32 -24 7 -22 8 15 4 24 -3 48 -8 53 -11z
m-4100 -6 c-17 -17 -17 -369 0 -386 9 -9 1 -12 -38 -12 -38 1 -45 3 -31 11 15
9 17 29 17 194 0 165 -2 185 -17 194 -14 8 -7 10 32 11 38 0 46 -3 37 -12z
m238 2 c-12 -8 -15 -41 -15 -195 0 -154 3 -187 15 -195 11 -7 0 -10 -35 -10
-35 0 -46 3 -35 10 12 8 15 41 15 195 0 154 -3 187 -15 195 -11 7 0 10 35 10
35 0 46 -3 35 -10z m165 -12 c-40 -31 -65 -98 -65 -175 0 -86 16 -136 57 -178
44 -46 24 -45 -26 0 -94 85 -94 255 0 340 21 19 44 35 50 35 7 0 -1 -10 -16
-22z m172 -4 c44 -34 74 -95 80 -165 9 -97 -55 -201 -137 -223 -18 -5 -15 -1
13 15 84 51 115 204 63 315 -13 28 -34 59 -47 68 -13 9 -19 16 -15 16 5 0 24
-12 43 -26z m186 16 c-18 -4 -40 -13 -48 -20 -13 -10 -15 -9 -15 9 0 19 5 21
48 20 44 -1 45 -2 15 -9z m97 -189 c0 -150 3 -201 13 -204 6 -3 -8 -6 -32 -6
-35 -1 -42 2 -33 11 9 9 12 68 12 205 0 186 1 193 20 193 19 0 20 -7 20 -199z
m120 178 c0 -18 -2 -20 -16 -9 -8 8 -32 17 -52 21 -35 6 -35 7 16 8 47 1 52
-1 52 -20z m100 -184 l0 -205 -31 0 c-25 0 -29 3 -20 13 16 20 17 363 1 382
-11 13 -8 15 19 15 l31 0 0 -205z m220 185 c0 -18 -3 -19 -22 -9 -13 7 -39 16
-58 20 -31 6 -28 7 23 8 51 1 57 -1 57 -19z m104 -9 c-12 -24 -14 -67 -12
-205 l3 -176 -28 0 c-24 0 -26 2 -17 19 6 11 10 92 10 190 0 141 -3 172 -16
185 -14 15 -11 16 30 16 l44 0 -14 -29z m461 17 c-31 -17 -45 -39 -45 -74 0
-42 26 -63 124 -98 125 -46 162 -118 95 -188 -28 -29 -29 -30 -10 -4 12 16 21
41 21 55 0 47 -30 71 -147 115 -81 31 -113 62 -113 110 1 42 49 95 85 95 6 0
1 -5 -10 -11z m372 -6 c-94 -58 -100 -283 -10 -362 37 -33 36 -37 -6 -16 -92
48 -125 218 -61 322 20 31 74 74 95 74 6 0 -3 -8 -18 -18z m161 -2 c49 -46 36
-96 -43 -168 -38 -34 -45 -46 -39 -64 6 -20 5 -21 -10 -9 -28 23 -18 53 33
102 27 26 54 57 60 68 13 24 0 65 -26 80 -10 6 -13 11 -7 11 5 0 20 -9 32 -20z
m138 4 c-13 -13 -16 -45 -16 -189 0 -144 3 -176 16 -189 14 -15 11 -16 -30
-16 l-45 0 15 28 c10 20 14 66 14 177 0 111 -4 157 -14 178 l-15 27 45 0 c41
0 44 -1 30 -16z m236 4 c-8 -8 -12 -66 -12 -195 0 -163 2 -183 18 -192 13 -8
6 -10 -32 -11 -39 0 -47 3 -38 12 17 17 17 369 0 386 -9 9 -2 12 32 12 34 0
41 -3 32 -12z m138 2 c-12 -8 -15 -42 -15 -205 l0 -195 -33 0 c-31 0 -32 1
-17 16 14 14 16 41 13 196 -2 146 -6 181 -18 188 -11 7 0 10 35 10 35 0 46 -3
35 -10z m655 -185 c0 -163 3 -197 15 -205 11 -7 1 -10 -33 -10 -45 0 -47 1
-32 16 14 14 16 41 13 196 -2 146 -6 181 -18 188 -11 7 -6 10 20 10 l35 0 0
-195z m215 174 c0 -17 -3 -19 -14 -10 -8 6 -33 16 -57 20 l-44 9 58 1 c52 1
57 -1 57 -20z m146 -1 c-89 -67 -89 -291 2 -365 15 -13 21 -23 15 -23 -7 0
-31 16 -52 35 -45 41 -71 105 -71 174 0 75 57 175 110 194 26 10 26 7 -4 -15z
m340 6 c-13 -13 -16 -43 -16 -168 0 -146 1 -155 25 -190 28 -41 19 -47 -22
-12 l-28 24 -5 165 c-4 118 -9 169 -19 180 -12 15 -9 17 33 17 43 0 46 -1 32
-16z m236 4 c-8 -8 -12 -57 -12 -155 0 -158 -10 -199 -54 -229 -15 -9 -29 -14
-33 -10 -3 3 -1 6 5 6 6 0 18 13 27 30 19 38 22 339 3 358 -9 9 -2 12 32 12
34 0 41 -3 32 -12z m108 0 c-19 -5 -41 -17 -47 -26 -11 -14 -13 -12 -13 11 0
26 2 27 48 26 l47 -1 -35 -10z m100 -174 c0 -109 4 -193 10 -205 10 -17 7 -19
-32 -19 -31 0 -39 3 -28 10 12 8 15 42 15 205 0 179 1 195 18 195 16 0 17 -15
17 -186z m128 163 c3 -17 1 -17 -20 -6 -12 7 -36 16 -53 20 -24 6 -20 7 20 6
40 -2 51 -6 53 -20z m-774 -134 c21 -7 49 -13 62 -13 13 0 24 -4 24 -10 0 -20
-47 -20 -104 0 -68 23 -97 25 -115 8 -11 -11 -13 -10 -9 2 7 22 49 40 78 33
14 -3 42 -12 64 -20z m-3973 -18 c24 -9 52 -14 62 -11 15 4 16 2 6 -10 -17
-20 -47 -17 -104 11 -58 28 -34 34 36 10z m1089 -1 c22 -9 47 -13 56 -10 14 5
15 4 4 -9 -18 -21 -44 -19 -98 10 -34 18 -41 25 -25 25 13 0 41 -7 63 -16z
m1449 0 c41 -12 56 -13 67 -3 12 10 13 9 8 -5 -11 -30 -53 -31 -108 -3 -58 29
-44 34 33 11z m1036 0 c21 -8 44 -13 51 -10 8 3 14 1 14 -3 0 -11 -25 -21 -48
-21 -9 0 -35 12 -57 25 -31 20 -35 25 -19 25 12 0 38 -7 59 -16z m-380 -14
c-10 -12 -34 -30 -52 -41 -58 -36 -79 -102 -47 -147 17 -25 67 -30 94 -9 9 6
5 2 -8 -10 -51 -49 -132 -14 -132 56 0 44 26 78 100 130 64 46 70 48 45 21z
m825 -38 c15 -12 24 -33 27 -63 5 -43 3 -49 -31 -83 -20 -20 -44 -36 -52 -36
-10 0 -5 9 15 26 28 23 31 32 31 80 0 41 -5 59 -20 74 -26 26 -2 28 30 2z
m-2247 -157 c16 -10 45 -22 65 -26 33 -7 31 -8 -14 -5 -68 4 -124 38 -124 74
l1 27 22 -26 c12 -15 35 -34 50 -44z m-253 5 l0 -30 -67 1 -68 1 50 9 c31 5
56 15 65 28 20 26 20 26 20 -9z m-310 -5 c0 -24 -2 -25 -67 -24 -67 1 -67 1
-24 10 24 5 53 15 65 23 27 19 26 20 26 -9z m1113 -16 c-4 -4 -28 -10 -53 -13
-40 -5 -41 -5 -14 4 17 5 39 19 50 31 17 19 19 19 22 4 2 -9 0 -21 -5 -26z
m697 16 c0 -24 -2 -25 -67 -24 -60 1 -63 2 -27 8 23 4 52 14 65 23 13 10 25
17 27 17 1 1 2 -10 2 -24z"/>
<path d="M2062 4020 c-7 -11 -20 -20 -29 -20 -13 0 -14 -3 -5 -12 7 -7 12 -21
12 -33 0 -17 6 -20 40 -20 34 0 40 3 40 20 0 12 5 26 12 33 9 9 9 12 -2 12 -7
0 -23 9 -35 20 -20 19 -21 19 -33 0z"/>
<path d="M2322 4020 c-7 -11 -19 -20 -28 -20 -13 0 -13 -2 0 -21 8 -12 12 -27
10 -33 -3 -7 9 -11 36 -11 34 0 40 3 40 20 0 12 5 26 12 33 9 9 8 12 -5 12 -9
0 -22 9 -29 20 -7 11 -15 20 -18 20 -3 0 -11 -9 -18 -20z"/>
<path d="M2587 4020 c-9 -11 -24 -20 -33 -20 -15 0 -16 -2 -2 -17 9 -10 14
-25 13 -33 -2 -12 7 -15 34 -15 34 0 39 3 48 32 5 18 6 33 2 33 -5 0 -16 9
-27 20 -18 19 -18 19 -35 0z"/>
<path d="M2849 4020 c-9 -10 -23 -20 -30 -22 -12 -4 -12 -7 0 -21 7 -9 11 -23
8 -30 -3 -9 6 -13 32 -12 33 0 39 4 48 33 5 17 6 32 2 32 -5 0 -16 8 -26 18
-17 18 -19 18 -34 2z"/>
<path d="M3112 4020 c-7 -11 -18 -20 -26 -20 -10 0 -11 -7 -3 -32 9 -30 14
-33 49 -33 30 -1 37 2 33 13 -3 8 2 23 10 33 15 16 15 18 -7 25 -12 4 -27 13
-33 21 -8 11 -12 10 -23 -7z"/>
<path d="M2390 3565 l0 -225 210 0 210 0 0 225 0 225 -210 0 -210 0 0 -225z
m368 138 c-3 -16 -19 -18 -147 -21 -139 -2 -180 5 -165 29 3 5 75 9 160 9 143
0 155 -1 152 -17z m-3 -93 c0 -13 -24 -15 -149 -18 -144 -2 -176 3 -161 27 4
8 55 11 158 9 127 -3 152 -5 152 -18z m3 -92 c3 -17 -9 -18 -151 -18 -84 0
-157 3 -160 7 -4 3 -2 12 5 20 8 11 43 13 157 11 130 -3 146 -5 149 -20z m2
-93 c0 -13 -24 -15 -155 -15 -131 0 -155 2 -155 15 0 13 24 15 155 15 131 0
155 -2 155 -15z"/>
<path d="M2155 3697 c-3 -6 -4 -165 -3 -352 l3 -340 67 -3 68 -3 2 168 3 168
28 3 27 3 0 185 0 184 -95 0 c-68 0 -97 -4 -100 -13z m140 -87 c0 -11 -13 -16
-47 -18 -43 -3 -48 -1 -48 18 0 19 5 21 48 18 34 -2 47 -7 47 -18z m3 -92 c3
-15 -4 -18 -46 -18 -55 0 -67 7 -50 27 17 21 92 13 96 -9z m2 -95 c0 -11 -12
-13 -50 -11 -57 3 -67 20 -18 28 43 7 68 1 68 -17z"/>
<path d="M2850 3525 l0 -185 29 0 c17 0 31 -6 35 -16 3 -9 6 -85 6 -170 l0
-154 65 0 65 0 0 355 0 355 -100 0 -100 0 0 -185z m155 85 c0 -24 -89 -21 -93
3 -3 16 3 18 45 15 35 -2 48 -7 48 -18z m3 -92 c3 -15 -4 -18 -47 -18 -36 0
-51 4 -51 13 0 23 12 28 55 25 29 -2 41 -8 43 -20z m2 -94 c0 -10 -14 -14 -50
-14 -37 0 -50 4 -50 14 0 9 12 16 33 18 44 4 67 -2 67 -18z"/>
<path d="M2330 3150 l0 -150 29 0 c27 0 30 4 41 53 6 28 22 68 36 88 68 99
218 114 308 31 36 -33 65 -97 66 -139 0 -31 2 -33 35 -33 l35 0 0 150 0 150
-275 0 -275 0 0 -150z"/>
<path d="M2535 3174 c-16 -8 -38 -23 -49 -32 -23 -21 -55 -89 -56 -119 0 -23
0 -23 171 -23 l172 0 -5 44 c-7 57 -40 104 -92 127 -50 23 -101 24 -141 3z"/>
<path d="M2000 2920 l0 -40 603 2 602 3 3 38 3 37 -605 0 -606 0 0 -40z"/>
</g>
</svg>
